<svg width="18" height="16" viewBox="0 0 18 16" fill="none" xmlns="http://www.w3.org/2000/svg">
<g clip-path="url(#clip0_41_1598)">
<path d="M18.0005 4.65057V5.72132C17.9916 5.76737 17.9812 5.81343 17.9747 5.85626C17.8636 6.57499 17.6104 7.26541 17.2294 7.88861C17.2025 7.94185 17.1598 7.98588 17.1071 8.01496C17.0543 8.04404 16.9939 8.05682 16.9336 8.05164C15.5808 8.04703 14.2278 8.04703 12.8747 8.05164C12.7148 8.05164 12.6323 7.99361 12.563 7.86143C12.3783 7.50866 12.1823 7.16142 11.9906 6.81187C11.6156 6.12782 11.2406 5.44408 10.8656 4.76064C10.762 4.5709 10.6041 4.46313 10.3856 4.46866C10.1672 4.47418 10.0153 4.59392 9.9239 4.78781C9.90703 4.82465 9.88828 4.86057 9.87093 4.89695C9.21718 6.25401 8.56312 7.6109 7.90875 8.96765C7.8825 9.02199 7.87359 9.10581 7.8 9.11133C7.72641 9.11686 7.70625 9.03166 7.67531 8.981C7.25906 8.34086 6.82219 7.71268 6.43641 7.05549C6.14531 6.55949 5.625 6.55535 5.37234 7.06286C5.23172 7.34609 5.03953 7.60446 4.88203 7.88032C4.80984 8.00697 4.71985 8.05164 4.57313 8.05072C3.42516 8.04565 2.27625 8.04243 1.12922 8.05302C0.924373 8.05302 0.814688 7.98624 0.715313 7.81584C0.347522 7.17899 0.10487 6.47988 0 5.75494V4.64965C0.0075 4.61603 0.0168732 4.58287 0.0215607 4.54879C0.220311 3.18836 0.86531 2.07109 1.94344 1.20068C3.03047 0.32013 4.28718 -0.0860602 5.69343 0.0184819C6.76734 0.0986154 7.72219 0.503888 8.58094 1.13482C8.71641 1.2343 8.84531 1.40009 8.98969 1.41483C9.15 1.43095 9.27094 1.23338 9.41156 1.1316C10.5216 0.325657 11.7553 -0.111854 13.1423 0.0263074C14.9733 0.205457 16.3542 1.12008 17.3114 2.65644C17.692 3.26895 17.8959 3.94318 18.0005 4.65057Z" fill="#767676"/>
<path d="M3.44684 9.05832C3.94466 9.05832 4.44294 9.05556 4.94075 9.05832C5.21075 9.05832 5.41559 8.96622 5.54637 8.72351C5.62653 8.5766 5.71841 8.43614 5.80747 8.29383C5.90872 8.13218 5.92231 8.13126 6.02497 8.28923C6.46325 8.96346 6.902 9.63722 7.33747 10.3156C7.46966 10.5224 7.607 10.7181 7.88919 10.7061C8.17138 10.6942 8.30169 10.4888 8.41184 10.2585C9.03434 8.9567 9.66044 7.6563 10.2901 6.35728C10.3126 6.31122 10.337 6.26517 10.359 6.21911C10.4059 6.1201 10.4528 6.10582 10.51 6.2099C10.5461 6.27576 10.584 6.34069 10.6201 6.40655C11.0364 7.1669 11.4578 7.92633 11.8665 8.68852C12.0072 8.94872 12.204 9.06293 12.4998 9.06155C13.689 9.05649 14.8783 9.06155 16.0675 9.06155C16.1261 9.06155 16.2128 9.02655 16.2386 9.10116C16.2578 9.15688 16.1847 9.19649 16.1448 9.23564C13.907 11.4247 11.6686 13.6127 9.4295 15.7997C9.1506 16.0719 8.84356 16.0686 8.56372 15.7955C6.32872 13.612 4.09434 11.4279 1.86059 9.24346C1.817 9.20109 1.73403 9.16149 1.76122 9.09563C1.7884 9.02977 1.87653 9.06201 1.937 9.06155C2.43903 9.05741 2.94294 9.05832 3.44684 9.05832Z" fill="#767676"/>
</g>
<defs>
<clipPath id="clip0_41_1598">
<rect width="18" height="16" fill="white"/>
</clipPath>
</defs>
</svg>
