<svg width="19" height="15" viewBox="0 0 19 15" fill="none" xmlns="http://www.w3.org/2000/svg">
<g clip-path="url(#clip0_41_1592)">
<path d="M15.3381 12.2791C14.2169 12.2791 13.0956 12.2762 11.9744 12.2791C11.827 12.2823 11.6838 12.2297 11.5732 12.1318C8.6468 9.72035 5.71874 7.31061 2.78897 4.90257C2.21623 4.4301 1.64743 3.95594 1.06904 3.4914C0.913859 3.36677 0.882823 3.27273 1.00358 3.09485C1.59664 2.20769 2.1739 1.30921 2.75907 0.416395C3.08184 -0.0759001 3.54906 -0.136517 3.96551 0.274768C5.49246 1.78168 8.07631 1.66215 9.57787 0.303094C9.7212 0.17393 9.86284 0.0481651 10.0632 0.0198397C10.4424 -0.0328455 10.7403 0.164299 10.8599 0.558022C11.0704 1.27012 11.2735 1.98449 11.4806 2.69772C11.5568 2.96058 11.5579 2.96115 11.7949 2.84558C11.9186 2.77666 12.0566 2.73785 12.1978 2.73228C12.3467 2.72726 12.4931 2.77167 12.6143 2.85862C12.7355 2.94557 12.8247 3.07021 12.8682 3.21325C12.916 3.35913 12.9142 3.51679 12.8631 3.66154C12.8121 3.80629 12.7146 3.92995 12.5861 4.01315C12.4478 4.09837 12.304 4.17408 12.1555 4.23976C12.0365 4.29641 12.0037 4.36156 12.0511 4.48902C12.3017 5.16883 12.5844 5.82938 12.9579 6.45027C13.0448 6.59473 13.1272 6.60606 13.2655 6.52845C13.4624 6.41798 13.6661 6.31998 13.8704 6.22367C14.2727 6.03332 14.6767 6.14832 14.8567 6.49956C15.0435 6.86439 14.8991 7.26774 14.5052 7.48075C14.4928 7.48755 14.4798 7.49378 14.468 7.50115C14.35 7.57422 14.1294 7.59519 14.1266 7.71302C14.1215 7.86541 14.3342 7.91753 14.4606 7.99627C15.1045 8.40246 15.8194 8.61094 16.5648 8.72197C17.8695 8.91628 18.756 9.77341 18.9709 11.0735C19.0274 11.4236 18.9879 11.7805 18.9924 12.134C18.9956 12.1534 18.9942 12.1732 18.9883 12.1919C18.9823 12.2105 18.972 12.2275 18.9582 12.2414C18.9444 12.2552 18.9275 12.2656 18.9089 12.2715C18.8903 12.2775 18.8706 12.2789 18.8513 12.2757C18.7881 12.2757 18.7243 12.2757 18.6612 12.2757L15.3381 12.2791ZM9.48815 3.78485C8.94531 3.79562 8.48598 4.26922 8.50122 4.80117C8.50252 4.93281 8.52963 5.06291 8.58101 5.18403C8.63238 5.30515 8.70702 5.41493 8.80066 5.50709C8.89429 5.59926 9.00509 5.672 9.12673 5.72118C9.24837 5.77035 9.37847 5.79499 9.50959 5.79369C9.64072 5.79239 9.77031 5.76517 9.89095 5.71359C10.0116 5.66201 10.1209 5.58708 10.2127 5.49307C10.3046 5.39907 10.377 5.28783 10.426 5.16571C10.475 5.04359 10.4995 4.91298 10.4982 4.78134C10.4903 4.23919 10.0203 3.77466 9.48815 3.78485ZM11.5303 7.1839C11.2659 7.18232 11.0116 7.28627 10.8235 7.47289C10.6354 7.6595 10.5289 7.91348 10.5273 8.17897C10.5257 8.44446 10.6293 8.6997 10.8151 8.88854C11.001 9.07738 11.254 9.18436 11.5184 9.18594C12.05 9.19784 12.5206 8.73273 12.5268 8.19115C12.533 7.64957 12.0675 7.18447 11.5303 7.1839Z" fill="#767676"/>
<path d="M14.6397 15.5405C13.4829 15.5405 12.3261 15.5354 11.1699 15.5405C10.6569 15.5468 10.1598 15.3622 9.77444 15.0222C6.80255 12.5076 3.83216 9.99311 0.863273 7.47857C0.292782 6.9976 -0.0429661 6.42259 0.0044337 5.65724C0.0179765 5.4448 0.00443369 5.16211 0.173719 5.07261C0.327204 4.99216 0.480125 5.24256 0.62176 5.36152C3.42211 7.66041 6.2204 9.96195 9.01661 12.2661C9.6108 12.7556 10.2118 13.2371 10.7969 13.739C11.1355 14.0308 11.5215 14.1532 11.9633 14.1526C14.2058 14.1488 16.4484 14.1488 18.6913 14.1526C18.9892 14.1526 18.9892 14.1526 18.9898 14.4585C18.9898 14.5644 18.9898 14.671 18.9898 14.7769C18.9869 15.2737 18.7251 15.5411 18.2342 15.5417C17.0372 15.5421 15.839 15.5417 14.6397 15.5405Z" fill="#767676"/>
</g>
<defs>
<clipPath id="clip0_41_1592">
<rect width="19" height="15" fill="white"/>
</clipPath>
</defs>
</svg>
