<svg width="68" height="59" viewBox="0 0 68 59" fill="none" xmlns="http://www.w3.org/2000/svg">
<path d="M34.2931 0.0263183C37.6246 -0.06964 41.3663 0.118338 45.1059 0.244529C49.3821 0.389124 53.6626 0.581036 57.9155 1.24223C59.891 1.54982 61.8166 2.03094 63.4552 3.58599C65.1555 5.19493 66.2182 7.29549 66.7007 9.85219C67.2894 12.9491 67.5264 16.1053 67.706 19.2692C67.9398 23.3665 68.0545 27.4678 67.9748 31.573C67.8685 37.1569 67.7006 42.7462 66.8622 48.2513C66.0301 53.7222 63.3235 56.8415 58.8379 57.6342C55.5956 58.2073 52.3321 58.4413 49.0686 58.5911C42.8828 58.8764 36.6948 59.092 30.5036 58.9605C25.8278 58.8619 21.1392 58.7646 16.4645 58.4268C13.5793 58.2178 10.6761 58.0811 7.84933 57.2569C4.48382 56.2776 2.31595 53.6434 1.39779 49.5382C0.760181 46.6989 0.579521 43.7544 0.377612 40.8283C0.165075 37.6735 0.0779347 34.4951 0.0184246 31.3258C-0.0570259 27.3087 0.109818 23.2969 0.326605 19.289C0.497697 16.1223 0.717673 12.9623 1.31703 9.86798C2.23412 5.13579 5.04173 2.08351 8.93646 1.39603C12.2021 0.818966 15.4889 0.566588 18.7758 0.41542C23.8076 0.18144 28.8426 -0.0118021 34.2931 0.0263183Z" fill="#FF5555"/>
<path d="M49 29L26.5 41.9904L26.5 16.0096L49 29Z" fill="white"/>
</svg>
