<svg width="42" height="42" viewBox="0 0 42 42" fill="none" xmlns="http://www.w3.org/2000/svg">
<g clip-path="url(#clip0_41_1587)">
<path d="M27.3559 -2.49147e-05C28.4336 0.252631 29.3484 0.7656 30.0419 1.6406C30.72 2.49482 30.9754 3.48138 30.9941 4.54669C31.0029 4.71064 31.0029 4.87494 30.9941 5.03888C30.9644 5.37357 31.1042 5.49279 31.4444 5.49498C32.3503 5.50154 33.2574 5.43701 34.1634 5.55185C37.0135 5.9117 38.7627 9.0606 37.5551 11.6561C37.445 11.8934 37.3195 11.9842 37.0487 11.9273C36.4292 11.8019 35.7985 11.7396 35.1663 11.7414C34.8151 11.7414 34.7094 11.8661 34.7259 12.1975C34.7469 12.6744 34.7513 13.1545 34.7259 13.6314C34.7072 13.9912 34.836 14.0984 35.196 14.1028C37.1896 14.1312 38.8948 14.8498 40.2697 16.2903C41.0911 17.1455 41.6686 18.2025 41.943 19.3528C42.0619 19.8428 42.0432 19.8701 41.5445 19.8701H32.379C31.8285 19.8701 31.8285 19.8701 31.823 20.4083C31.823 21.1465 31.8374 21.8848 31.8164 22.622C31.7856 23.6797 31.1559 24.4387 30.1652 24.6498C29.73 24.7369 29.2781 24.6772 28.8809 24.4803C28.4837 24.2834 28.164 23.9604 27.9723 23.5626C27.822 23.2544 27.7465 22.9153 27.7522 22.5728C27.7522 21.8345 27.7357 21.0962 27.7588 20.359C27.7698 19.9915 27.663 19.8559 27.2722 19.8614C25.7597 19.8822 24.246 19.8614 22.7335 19.8789C22.3152 19.8843 22.193 19.7542 22.1974 19.3408C22.2172 17.5098 22.2139 15.6789 22.1974 13.8479C22.1974 13.4892 22.2865 13.347 22.6784 13.3361C25.0772 13.2694 26.9662 11.4165 26.9717 9.02232C26.9805 6.51873 25.0727 4.7381 22.805 4.61451C22.1875 4.58169 22.1875 4.59154 22.2051 3.98998C22.2557 2.30341 23.6009 0.632163 25.3083 0.137788C25.4657 0.0918503 25.6221 0.0426318 25.7795 -0.00549316L27.3559 -2.49147e-05Z" fill="#DBACB7"/>
<path d="M16.2113 0C17.5224 0.328125 18.5803 1.00734 19.2496 2.205C19.5956 2.79956 19.7814 3.47277 19.789 4.15953C19.789 4.96563 19.7989 5.77281 19.789 6.57891C19.789 6.8611 19.8859 6.96828 20.1721 6.965C20.9559 6.95406 21.7408 6.94531 22.5234 6.965C23.9953 7.00438 24.9541 8.33984 24.4774 9.66219C24.189 10.4639 23.425 10.9845 22.4893 10.9988C21.7606 11.0097 21.0307 11.0206 20.3031 10.9988C19.9112 10.9856 19.7824 11.1081 19.7846 11.5052C19.8011 14.1017 19.7934 16.6983 19.7923 19.2948C19.7923 19.8756 19.7923 19.8767 19.1967 19.8778C18.5219 19.8778 17.8482 19.8778 17.1745 19.8778C16.6241 19.8778 16.6241 19.8778 16.6076 19.3375C16.5905 18.3649 16.2462 17.426 15.6295 16.6706C15.0128 15.9151 14.1592 15.3865 13.2049 15.1692C10.5178 14.5403 7.87469 16.5736 7.81084 19.3145C7.79873 19.8734 7.79873 19.8745 7.2263 19.8745H0.461696C-0.0391824 19.8745 -0.0578967 19.8472 0.0598923 19.3583C0.7325 16.5834 3.15323 14.4594 5.98677 14.163C6.31701 14.1291 6.64726 14.1083 6.97201 14.0963C7.17787 14.0875 7.27254 14.0044 7.27144 13.7966C7.27144 13.2223 7.26373 12.6492 7.27144 12.075C7.27144 11.8191 7.15255 11.7469 6.91697 11.7469C6.31197 11.7224 5.70631 11.7753 5.11491 11.9044C4.7142 12.0028 4.52596 11.8891 4.37735 11.5084C3.24019 8.60234 5.31526 5.55406 8.49226 5.49281C9.19385 5.47969 9.89508 5.47969 10.5959 5.49281C10.9009 5.49281 11.0187 5.38344 11.0044 5.08156C10.9692 4.54859 11.0062 4.01334 11.1144 3.49016C11.5217 1.69969 12.6358 0.56875 14.4092 0.0710939C14.4885 0.0492189 14.5666 0.0251565 14.6448 0.00109398L16.2113 0Z" fill="#DBACB7"/>
<path d="M14.6425 42C13.3887 41.6982 12.3704 41.0605 11.6758 39.9536C11.1386 39.0972 10.9955 38.1511 11.0043 37.1657C11.0043 36.5094 11.0043 36.5225 10.3493 36.5094C9.51157 36.4952 8.67274 36.5542 7.8361 36.4482C4.98825 36.0861 3.23463 32.9274 4.44665 30.3407C4.55673 30.1011 4.68663 30.0125 4.95523 30.0727C5.56146 30.1948 6.17835 30.2571 6.79692 30.2586C7.14588 30.2586 7.3 30.1744 7.27908 29.8003C7.25156 29.3228 7.25156 28.844 7.27908 28.3664C7.3 28.0022 7.169 27.9016 6.80683 27.8972C4.76369 27.8666 3.03538 27.1064 1.65054 25.6102C0.91072 24.8122 0.377938 23.8469 0.0983643 22.7982C-0.0458446 22.2699 -0.0117195 22.2272 0.527688 22.2261C1.68356 22.2261 2.83907 22.2261 3.9942 22.2261C5.87773 22.2261 7.76235 22.2152 9.64697 22.2349C10.0653 22.2349 10.1974 22.108 10.1875 21.6957C10.1677 20.8764 10.1368 20.055 10.2227 19.2391C10.3482 18.0557 11.2388 17.3797 12.4244 17.4475C13.4316 17.511 14.2187 18.3805 14.2429 19.4863C14.2595 20.2519 14.2606 21.0175 14.2429 21.7832C14.2352 22.1244 14.3596 22.2349 14.6987 22.2327C16.2112 22.2207 17.7238 22.2261 19.2374 22.2327C19.7878 22.2327 19.7933 22.2414 19.7933 22.7796C19.7933 24.5558 19.7845 26.3332 19.8021 28.1094C19.8021 28.5021 19.7152 28.6563 19.2814 28.6672C16.9576 28.7153 15.1555 30.4588 15.0311 32.8946C14.9211 34.9924 16.3973 36.8977 18.6165 37.3144C18.8715 37.371 19.1325 37.3963 19.3937 37.3899C19.6987 37.3735 19.7933 37.5069 19.7977 37.8044C19.822 39.4888 18.6088 41.1764 16.9202 41.7791C16.6879 41.8622 16.4501 41.9311 16.2145 42.0055L14.6425 42Z" fill="#DBACB7"/>
<path d="M25.789 42C24.6684 41.7036 23.6975 41.1786 23.0149 40.2085C22.5003 39.5076 22.2193 38.6643 22.2113 37.7967C22.2113 37.0038 22.2014 36.2108 22.2113 35.4189C22.2113 35.1313 22.1013 35.0328 21.8238 35.0361C21.0401 35.046 20.2552 35.0569 19.4725 35.0361C18.0007 34.9935 17.044 33.6547 17.5229 32.3346C17.8146 31.5339 18.5797 31.0144 19.5154 31.0013C20.2574 30.9914 21.0015 30.9827 21.7435 31.0013C22.1057 31.0122 22.2157 30.8919 22.2135 30.531C22.2003 27.9486 22.2069 25.3652 22.2069 22.7818C22.2069 22.2349 22.2146 22.2272 22.7573 22.225C23.4729 22.225 24.1884 22.2393 24.904 22.2185C25.2838 22.2075 25.3949 22.3519 25.4026 22.7216C25.4456 24.9091 26.8855 26.5782 29.0629 26.9949C31.3493 27.4324 33.726 25.7918 34.1036 23.5102C34.156 23.2425 34.1818 22.9703 34.1807 22.6975C34.1664 22.3399 34.3029 22.2163 34.6606 22.2196C36.0081 22.2327 37.3566 22.2196 38.7051 22.2196C39.654 22.2196 40.6029 22.2196 41.5529 22.2196C41.9933 22.2196 42.0252 22.2732 41.9217 22.7052C41.2876 25.3674 38.7832 27.556 36.0598 27.825C35.7295 27.8567 35.3993 27.8863 35.0745 27.8928C34.8335 27.8928 34.7234 27.9814 34.7278 28.2308C34.7366 28.7915 34.7366 29.3519 34.7278 29.9119C34.7278 30.1657 34.8379 30.24 35.0779 30.2455C35.7384 30.2611 36.3985 30.2005 37.045 30.065C37.3103 30.0071 37.4413 30.0902 37.5536 30.3297C38.7645 32.9164 37.0142 36.0785 34.1653 36.4383C33.2604 36.5532 32.3522 36.4897 31.4462 36.4963C31.105 36.4963 30.9806 36.6122 30.9916 36.9502C31.0191 37.7322 30.9762 38.5132 30.6723 39.2471C30.1285 40.565 29.1719 41.4455 27.7903 41.8578L27.3577 41.9891L25.789 42Z" fill="#DBACB7"/>
</g>
<defs>
<clipPath id="clip0_41_1587">
<rect width="42" height="42" fill="white"/>
</clipPath>
</defs>
</svg>
