<svg width="42" height="42" viewBox="0 0 42 42" fill="none" xmlns="http://www.w3.org/2000/svg">
<g clip-path="url(#clip0_41_1540)">
<path d="M0 26.9883V26.168C1.10359 24.0899 2.20063 22.0117 3.31516 19.9468C3.49969 19.612 3.59428 19.2352 3.58969 18.853C3.58969 17.3217 3.48578 15.7905 3.77234 14.2746C4.73813 9.16237 7.62453 5.55628 12.3802 3.47378C14.537 2.52987 16.8197 2.25425 19.1614 2.48941C19.6219 2.53644 19.6208 2.56159 19.3463 2.92691C18.562 3.978 18.3509 5.12972 18.7917 6.37003C18.9077 6.69816 18.8584 6.83816 18.5391 6.99238C17.3458 7.57206 16.6513 8.53128 16.497 9.86019C16.3877 10.8544 16.4227 11.8541 16.4577 12.8483C16.5091 14.3303 17.1784 15.4657 18.5358 16.1296C18.853 16.2827 18.9033 16.4238 18.7884 16.7519C18.3127 18.1103 18.5806 19.3496 19.5344 20.4083C20.1742 21.1182 20.8567 21.793 21.5633 22.4372C22.6308 23.4107 23.8809 23.6775 25.2536 23.2028C25.5948 23.0836 25.7206 23.1711 25.8705 23.4741C26.4677 24.6772 27.44 25.3619 28.7886 25.5096C29.5936 25.5971 30.3997 25.5446 31.2047 25.5577C31.8609 25.5686 31.8609 25.5577 31.8609 26.2052C31.8609 30.975 31.8533 35.7438 31.8686 40.5136C31.8686 41.2071 31.6345 41.7014 31.0089 42.0022H16.0781C15.4273 41.7343 15.1572 41.2289 15.1605 40.5464C15.1637 39.8639 15.1605 39.2077 15.1605 38.5383C15.1605 38.021 15.1222 37.9914 14.5928 37.9827C13.2136 37.9586 11.8344 38.0144 10.4541 37.9378C7.04156 37.7486 4.07422 34.9749 3.6575 31.5722C3.52297 30.4785 3.60609 29.3847 3.58859 28.2964C3.58859 27.9683 3.47922 27.8228 3.13906 27.8349C2.60641 27.8535 2.07266 27.8174 1.54109 27.8447C0.837813 27.8797 0.318281 27.6249 0 26.9883Z" fill="#FFABCC"/>
<path d="M41.9996 13.289C41.7699 13.7419 41.3915 14.0044 40.9201 14.1728C40.3032 14.3915 39.6984 14.6508 39.0837 14.8783C38.8332 14.9701 38.7785 15.0872 38.8945 15.3376C39.1985 15.9939 39.4818 16.6611 39.7695 17.325C40.0331 17.9287 39.9488 18.4679 39.4742 18.9383C38.9112 19.4961 38.3505 20.0564 37.792 20.6194C37.3304 21.0831 36.7967 21.1575 36.2115 20.9081C35.5454 20.6248 34.8804 20.3361 34.2253 20.0331C33.9584 19.9084 33.8359 19.9697 33.7374 20.2376C33.4979 20.8939 33.242 21.5403 32.9828 22.1867C32.6896 22.9217 32.332 23.1634 31.551 23.1711C30.7993 23.1711 30.0475 23.1711 29.2957 23.1711C28.5388 23.1711 28.1757 22.925 27.8903 22.2151C27.6256 21.5589 27.3704 20.8964 27.1246 20.2278C27.0328 19.9828 26.9179 19.9172 26.6653 20.0342C26.0342 20.3284 25.3921 20.5997 24.7523 20.8753C24.0151 21.1936 23.5667 21.1104 23.0023 20.5559C22.4379 20.0014 21.9217 19.4709 21.3781 18.9328C20.9121 18.4734 20.8312 17.9429 21.0849 17.3556C21.3704 16.6906 21.6559 16.0245 21.9599 15.3683C22.0824 15.1069 22.0354 14.9789 21.7631 14.8783C21.0838 14.6289 20.4134 14.3554 19.7385 14.0929C19.1184 13.8523 18.8154 13.4115 18.8285 12.7378C18.8438 11.9317 18.834 11.1245 18.8285 10.3184C18.8285 9.71576 19.114 9.30342 19.6642 9.08029C20.3095 8.81888 20.9613 8.57388 21.611 8.32123C22.1021 8.12982 22.101 8.12873 21.8965 7.66498C21.6274 7.05138 21.3551 6.43998 21.0926 5.8242C20.8082 5.16029 20.8957 4.69982 21.4043 4.18357C21.9424 3.63888 22.4835 3.09748 23.0274 2.55935C23.559 2.03435 24.0042 1.95451 24.7031 2.25638C25.3429 2.53201 25.986 2.80326 26.616 3.09967C26.8982 3.23201 27.0251 3.17404 27.1279 2.88092C27.3467 2.27607 27.6037 1.68763 27.8159 1.0817C27.9821 0.608103 28.2457 0.232947 28.7029 0.00872803H32.1482C32.6054 0.227478 32.8679 0.608103 33.0342 1.08279C33.2463 1.68763 33.5067 2.27607 33.7221 2.88092C33.8238 3.16748 33.9474 3.23529 34.234 3.09967C34.8498 2.80763 35.4809 2.54295 36.1065 2.2706C36.8535 1.94248 37.2834 2.02232 37.8499 2.58342C38.3735 3.10185 38.8952 3.62321 39.4151 4.14748C39.962 4.69435 40.0462 5.15045 39.7432 5.85592C39.4731 6.48373 39.2106 7.11482 38.9131 7.72951C38.7588 8.04998 38.842 8.18123 39.1603 8.2917C39.7542 8.49732 40.3284 8.75764 40.9201 8.96435C41.3959 9.1306 41.7677 9.39638 41.9931 9.85248L41.9996 13.289ZM30.4059 15.237C30.8847 15.2422 31.3598 15.1529 31.804 14.9742C32.2483 14.7956 32.6529 14.531 32.9948 14.1958C33.3367 13.8605 33.6091 13.4611 33.7964 13.0204C33.9837 12.5797 34.0822 12.1064 34.0863 11.6276C34.1082 9.65341 32.4588 7.9931 30.4704 7.98654C29.9907 7.98163 29.5148 8.07128 29.0697 8.25036C28.6247 8.42944 28.2193 8.69444 27.8767 9.03023C27.5341 9.36602 27.261 9.76602 27.0731 10.2074C26.8851 10.6487 26.7859 11.1228 26.7812 11.6025C26.7429 13.5526 28.4109 15.2283 30.4004 15.237H30.4059Z" fill="#FFABCC"/>
<path d="M28.379 11.5903C28.3878 11.1995 28.5117 10.82 28.7353 10.4994C28.9588 10.1787 29.2719 9.93105 29.6356 9.78749C29.9992 9.64394 30.3971 9.61084 30.7794 9.69234C31.1617 9.77384 31.5115 9.96631 31.785 10.2457C32.0584 10.525 32.2434 10.8788 32.3167 11.2628C32.3899 11.6467 32.3483 12.0438 32.197 12.4042C32.0456 12.7646 31.7913 13.0723 31.4659 13.2889C31.1404 13.5055 30.7583 13.6212 30.3674 13.6217C29.8347 13.6148 29.3264 13.3973 28.9537 13.0166C28.581 12.6359 28.3744 12.123 28.379 11.5903Z" fill="#FFABCC"/>
</g>
<defs>
<clipPath id="clip0_41_1540">
<rect width="42" height="42" fill="white"/>
</clipPath>
</defs>
</svg>
