<svg width="42" height="42" viewBox="0 0 42 42" fill="none" xmlns="http://www.w3.org/2000/svg">
<g clip-path="url(#clip0_41_1581)">
<rect width="42" height="42" fill="white"/>
<path d="M3.77344 0L27.7102 23.9411L42 38.2266V38.3906C40.7706 39.5675 39.5675 40.7706 38.3906 42H38.2266C34.8651 38.6371 31.5058 35.272 28.1488 31.9047C28.0309 31.7766 27.8863 31.6759 27.7253 31.6098C27.5643 31.5437 27.3907 31.5136 27.2169 31.5219C18.3487 31.5321 9.48063 31.5343 0.612501 31.5284C0.409063 31.5284 0.204531 31.5098 0 31.5V21C0.204531 20.9912 0.407969 20.9727 0.612501 20.9727H17.1752C17.0658 20.8502 17.0286 20.7977 16.9816 20.7539L0 3.77344V3.60938C1.23156 2.43469 2.43469 1.23156 3.60938 0H3.77344Z" fill="#4BB7BF"/>
<path d="M42.0006 10.7461C41.7053 12.2424 40.9068 13.5035 40.1193 14.7668C39.4904 15.7719 38.9742 16.8175 38.8648 18.0239C38.8528 18.1618 38.8779 18.4614 38.5739 18.2897C37.3084 17.5821 36.0418 16.8799 35.1428 15.6822C34.1245 14.326 33.5371 11.6069 34.877 9.62175C35.6656 8.45363 36.5668 7.37191 37.3653 6.21253C37.9176 5.41081 38.4174 4.58066 38.6329 3.61488C38.6832 3.38956 38.692 3.1555 38.7215 2.92581C38.7335 2.83503 38.7215 2.718 38.8364 2.68847C38.9249 2.66659 38.9796 2.753 39.0376 2.80988C40.5524 4.30066 41.7096 5.98175 41.947 8.16925C41.96 8.23575 41.9779 8.30119 42.0006 8.36503V10.7461Z" fill="#4BB7BF"/>
<path d="M42.0003 31.5C41.0312 31.5098 40.0632 31.5164 39.0942 31.5284C38.894 31.5284 38.766 31.419 38.6381 31.29C38.0781 30.7289 37.5214 30.1656 36.9559 29.6111C36.8768 29.5368 36.8147 29.4464 36.7738 29.346C36.7328 29.2456 36.714 29.1375 36.7185 29.0292C36.7244 26.4881 36.7244 23.9473 36.7185 21.4069C36.7185 21.2078 36.677 20.9694 36.9996 20.9748C38.6658 20.985 40.3312 20.9934 41.9959 21L42.0003 31.5Z" fill="#4BB7BF"/>
<path d="M32.0741 -1.4782e-05C32.2732 0.225298 32.4624 0.461548 32.6735 0.673736C34.2638 2.2717 34.768 5.34514 33.2783 7.45499C33.1055 7.69999 32.9655 7.96905 32.8091 8.22061C32.4449 8.82108 32.1529 9.4478 32.0686 10.1576C32.0533 10.2878 32.0686 10.5689 31.8028 10.4289C30.4411 9.71686 29.2074 8.88889 28.9132 7.20561C28.7502 6.27374 28.8596 5.40967 29.3977 4.61999C29.6744 4.21311 29.9566 3.80952 30.2541 3.41686C31.0438 2.38217 31.8564 1.3628 31.9921 -0.0032959L32.0741 -1.4782e-05Z" fill="#4BB7BF"/>
<path d="M34.1255 26.6591C33.9199 26.6175 33.8444 26.495 33.7504 26.4009C32.0689 24.7239 30.3897 23.0439 28.7126 21.3609C28.6207 21.2691 28.4413 21.1859 28.4938 21.0459C28.5463 20.9059 28.7377 20.9748 28.8657 20.9748C30.4626 20.9748 32.0605 20.9803 33.6574 20.965C34.0151 20.965 34.1627 21.0492 34.1584 21.4419C34.1387 23.0661 34.1507 24.6914 34.1496 26.3156C34.1518 26.4228 34.1354 26.5289 34.1255 26.6591Z" fill="#4BB7BF"/>
</g>
<defs>
<clipPath id="clip0_41_1581">
<rect width="42" height="42" fill="white"/>
</clipPath>
</defs>
</svg>
