<svg width="42" height="42" viewBox="0 0 42 42" fill="none" xmlns="http://www.w3.org/2000/svg">
<g clip-path="url(#clip0_41_1533)">
<path d="M25.6785 43.4483H0.367551C0.0334137 43.1849 0 42.8252 0 42.4296C0.00445517 31.0135 0.00445517 19.5967 0 8.17907C0 8.08157 0 7.98295 0 7.88545C0.0233896 7.36769 0.26731 7.11218 0.779655 7.10994C2.36681 7.10321 3.95396 7.10994 5.54112 7.10321C5.6512 7.09251 5.7616 7.12003 5.85399 7.18119C5.94638 7.24235 6.0152 7.33347 6.04901 7.43942C6.80973 9.14735 8.16521 9.95312 9.98849 9.95873C14.1934 9.97292 18.398 9.97292 22.6022 9.95873C24.4444 9.95873 25.8077 9.14847 26.5729 7.42149C26.6609 7.22201 26.7711 7.10881 27.0061 7.10994C28.6356 7.10994 30.264 7.10994 31.8935 7.11778C32.3334 7.11778 32.5807 7.38002 32.6208 7.82382C32.6319 7.94821 32.6274 8.07485 32.6274 8.20149V28.6216C32.6274 28.7056 32.6274 28.7897 32.6274 28.8737C32.6464 29.2335 32.5005 29.2671 32.1997 29.1315C29.9254 28.115 27.8749 28.5924 26.0215 30.1401C24.7362 31.2126 23.9566 32.6213 23.55 34.2385C23.4698 34.5601 23.3273 34.6722 23.0065 34.6632C22.3939 34.6442 21.7813 34.6576 21.1687 34.6576C20.2777 34.6576 19.3867 34.6419 18.4956 34.6632C17.4932 34.6867 16.9163 35.5519 17.325 36.3824C17.5478 36.8452 17.941 37.0413 18.4455 37.0402C19.8801 37.0402 21.3135 37.0525 22.7481 37.0335C23.1379 37.0279 23.305 37.168 23.3273 37.549C23.3804 38.1631 23.495 38.7702 23.6692 39.3611C24.088 40.8494 24.8264 42.1763 25.6785 43.4483ZM8.60182 20.7342C8.75497 20.7474 8.90915 20.7269 9.05361 20.6741C9.19808 20.6212 9.32935 20.5373 9.43828 20.4282C11.0332 18.8436 12.6234 17.2552 14.2087 15.663C14.3562 15.5223 14.4607 15.3419 14.5096 15.1433C14.5586 14.9447 14.55 14.7362 14.4849 14.5424C14.2053 13.6211 13.1751 13.3903 12.4533 14.0941C11.2883 15.2394 10.1311 16.3915 8.98162 17.5503C8.74216 17.7912 8.59068 17.7744 8.38129 17.5267C7.99703 17.0661 7.60163 16.6145 7.18619 16.1819C6.66828 15.635 5.97884 15.6003 5.47429 16.0698C4.9909 16.5181 4.96083 17.2141 5.43865 17.7666C6.186 18.634 6.95452 19.4835 7.71635 20.3374C7.82299 20.4685 7.95859 20.5726 8.11234 20.6414C8.26608 20.7103 8.43371 20.7421 8.60182 20.7342ZM6.33414 33.6288C5.76945 33.6367 5.4264 33.863 5.22035 34.2934C5.11207 34.5003 5.07133 34.7363 5.10392 34.9679C5.13651 35.1994 5.24077 35.4148 5.40189 35.5833C6.11472 36.407 6.84091 37.2195 7.56711 38.0309C8.261 38.8064 8.90366 38.8266 9.63096 38.1026C10.8895 36.8542 12.147 35.6046 13.4034 34.3539C13.6807 34.0782 13.9714 33.8137 14.2231 33.5156C14.8146 32.8163 14.5071 31.7931 13.6484 31.5768C13.1728 31.458 12.7785 31.6217 12.4366 31.9635C11.2927 33.1088 10.1389 34.2452 9.00167 35.3973C8.75664 35.6449 8.59737 35.655 8.37015 35.3782C7.99926 34.9299 7.5905 34.4996 7.2029 34.0625C6.94895 33.7767 6.64155 33.6098 6.33414 33.6288ZM14.5361 23.8586C14.5361 23.2322 14.1218 22.7279 13.6027 22.6382C13.1238 22.5564 12.7407 22.7245 12.3999 23.0663C11.2861 24.187 10.1656 25.2931 9.04734 26.4037C8.67422 26.7736 8.67088 26.7747 8.31112 26.3723C7.95137 25.97 7.57825 25.5307 7.19733 25.1205C6.71394 24.5972 6.0078 24.5389 5.5155 24.9648C5.00204 25.4074 4.95192 26.1348 5.42862 26.6861C6.17784 27.5513 6.93819 28.4071 7.70967 29.2536C8.2209 29.814 8.9471 29.8409 9.48394 29.3119C11.0433 27.7743 12.5892 26.2211 14.1396 24.6734C14.3693 24.4619 14.5109 24.1709 14.5361 23.8586ZM22.3327 16.823C21.0952 16.823 19.8578 16.823 18.6215 16.823C18.4274 16.8161 18.2332 16.8338 18.0434 16.8756C17.7881 16.9516 17.5656 17.1117 17.4115 17.3301C17.2574 17.5486 17.1807 17.8128 17.1936 18.0804C17.2538 18.7214 17.7594 19.1887 18.4934 19.1932C21.0782 19.2074 23.6633 19.2074 26.2487 19.1932C27.034 19.1932 27.5151 18.6855 27.5073 17.9784C27.4995 17.2712 27.0184 16.8274 26.2098 16.8241C24.9211 16.8196 23.628 16.8241 22.336 16.823H22.3327ZM20.5918 28.1217C21.3146 28.1217 22.0397 28.1296 22.7615 28.1217C23.5021 28.1105 23.9978 27.623 23.9955 26.9293C23.9933 26.2356 23.4966 25.7515 22.7537 25.747C21.334 25.7388 19.9146 25.7388 18.4956 25.747C17.7438 25.747 17.1914 26.2681 17.1947 26.9383C17.1981 27.6085 17.7516 28.1139 18.5045 28.1229C19.2007 28.1285 19.8957 28.1217 20.5918 28.1217Z" fill="#DBACB7"/>
<path d="M29.1866 43.4483C28.5006 43.1681 28.0339 42.6481 27.6151 42.0553C26.635 40.6645 25.8998 39.1684 25.6949 37.4604C25.4944 35.7794 25.7796 34.197 26.7864 32.7939C27.0304 32.4523 27.318 32.1444 27.6418 31.8783C29.2189 30.5839 31.0233 30.7027 32.41 32.1988C32.5804 32.3837 32.7307 32.5854 32.8978 32.7737C33.4157 33.3553 34.2054 33.361 34.7233 32.7793C34.9917 32.4778 35.2301 32.1484 35.5375 31.8828C36.805 30.7778 38.303 30.6814 39.6775 31.6497C40.9862 32.572 41.66 33.891 41.905 35.4454C42.2392 37.5131 41.6311 39.3768 40.6075 41.1341C40.3546 41.5666 40.0506 41.969 39.7666 42.3847C39.4465 42.8652 38.9895 43.2371 38.4556 43.4516L29.1866 43.4483Z" fill="#DBACB7"/>
<path d="M16.8244 0.413818C17.8268 0.795974 18.3035 1.5177 18.2812 2.60925C18.2545 3.86442 18.6655 4.24994 19.9274 4.25106C20.8741 4.25106 21.8209 4.25106 22.7654 4.25106C23.7678 4.2589 24.5162 4.95709 24.5229 5.88839C24.5296 6.81968 23.7967 7.56942 22.7988 7.56942C18.4743 7.58138 14.1487 7.58138 9.82197 7.56942C8.81956 7.56942 8.09559 6.80847 8.11564 5.87718C8.13569 4.94589 8.87302 4.25778 9.88211 4.2533C10.9257 4.2533 11.9682 4.2533 13.0119 4.2533C13.8662 4.2533 14.3484 3.76244 14.3696 2.89727C14.3785 2.57563 14.3484 2.24615 14.4108 1.93459C14.569 1.15011 15.088 0.674939 15.822 0.418301L16.8244 0.413818Z" fill="#DBACB7"/>
<path d="M38.8677 23.6681C39.9692 23.5885 40.0929 23.7118 40.0929 24.8145C40.102 25.2621 40.0571 25.7092 39.9592 26.1459C39.5605 27.7406 38.3999 28.4108 36.9152 28.6708C36.4767 28.7482 36.0315 28.7808 35.5865 28.7683C35.2167 28.7582 35.0218 28.5879 35.0106 28.208C34.9809 27.4378 35.09 26.6686 35.3325 25.9375C35.8059 24.5444 36.8696 23.7465 38.3309 23.6714C38.5068 23.6602 38.6873 23.6681 38.8677 23.6681Z" fill="#DBACB7"/>
</g>
<defs>
<clipPath id="clip0_41_1533">
<rect width="42" height="42" fill="white"/>
</clipPath>
</defs>
</svg>
