<svg width="42" height="42" viewBox="0 0 42 42" fill="none" xmlns="http://www.w3.org/2000/svg">
<g clip-path="url(#clip0_41_1545)">
<path d="M0.0089635 13.1222C0.0729229 13.0172 0.131962 12.9089 0.202482 12.8089C0.352732 12.5948 0.565634 12.4325 0.81189 12.3444C1.05815 12.2562 1.32566 12.2466 1.57761 12.3168C1.83724 12.3864 2.06708 12.5388 2.23224 12.7509C2.3974 12.963 2.48885 13.2232 2.49272 13.492C2.50584 14.0383 2.49764 14.5853 2.49764 15.1323V26.4502C2.49764 27.0423 2.49764 27.0432 3.10771 27.0432H14.2981C14.8779 27.0432 14.8844 27.0432 14.8779 27.6304C14.8672 28.6588 14.9919 29.6496 15.6462 30.5009C16.4851 31.5884 17.6355 31.9673 18.959 31.9673C26.2411 31.9673 33.5234 31.9673 40.806 31.9673C41.2013 31.9673 41.5973 31.9853 41.9926 31.9951C41.9926 35.2347 41.9926 38.4742 41.9991 41.7138C41.9991 41.9598 41.9516 42.0213 41.7047 42.0074C41.2554 41.9828 40.8027 42.0008 40.3526 42.0008C39.7327 41.6957 39.4703 41.2094 39.4949 40.5098C39.5293 39.5133 39.485 38.5144 39.5129 37.5171C39.5236 37.1071 39.3792 37.0177 38.9963 37.0193C35.7303 37.0324 32.4643 37.0267 29.199 37.0267C20.4678 37.0267 11.7365 37.0242 3.00521 37.0193C2.62228 37.0193 2.47714 37.1087 2.48862 37.5171C2.5165 38.5144 2.47222 39.5133 2.50666 40.5098C2.53044 41.2094 2.26886 41.6957 1.64895 42.0008C1.15695 42.0008 0.664957 41.9943 0.172962 42.0008C0.0376632 42.0008 -0.0246562 41.9844 0.0089635 41.8368C0.0155371 41.7689 0.0155371 41.7005 0.0089635 41.6326V13.1222Z" fill="#46B972"/>
<path d="M41.9926 29.5249C41.8155 29.5348 41.6392 29.552 41.462 29.552C33.9219 29.552 26.3824 29.552 18.8434 29.552C17.7126 29.552 17.2854 29.1239 17.2854 27.9995C17.2854 26.4962 17.2805 24.9937 17.2854 23.4887C17.2944 21.2309 18.8721 19.6538 21.1394 19.6521C26.7798 19.6472 32.4208 19.6472 38.0623 19.6521C40.0188 19.6521 41.2718 20.5543 41.9024 22.407C41.9286 22.4841 41.9655 22.5579 41.9975 22.6333L41.9926 29.5249Z" fill="#46B972"/>
<path d="M28.7916 1.15768e-05C29.8575 0.664322 29.9395 1.46395 29.0375 2.36528C28.3143 3.09029 27.5886 3.81283 26.8678 4.54111C26.7768 4.63296 26.6448 4.69775 26.6169 4.89212C27.1835 4.89212 27.7387 4.88802 28.2938 4.89212C29.1031 4.89951 29.6427 5.41701 29.6345 6.1699C29.6263 6.89982 29.0876 7.40502 28.2946 7.40748C26.7112 7.4124 25.127 7.40748 23.5428 7.40748C22.963 7.40748 22.5309 7.17292 22.303 6.63983C22.075 6.10675 22.198 5.61713 22.6039 5.21116C23.4813 4.33361 24.3669 3.46345 25.3 2.53997C24.9072 2.44648 24.5875 2.49651 24.2718 2.48666C23.9856 2.47764 23.6978 2.48667 23.4116 2.48092C23.1433 2.47488 22.8842 2.38236 22.6728 2.21715C22.4614 2.05194 22.3089 1.82286 22.2382 1.56401C22.1688 1.31163 22.1793 1.04394 22.2683 0.79779C22.3573 0.551638 22.5204 0.339116 22.7351 0.189463C22.8351 0.118931 22.9434 0.0598813 23.0483 -0.00408936L28.7916 1.15768e-05Z" fill="#46B972"/>
<path d="M11.1484 24.6304C10.4131 24.6276 9.69526 24.4069 9.0855 23.996C8.47575 23.5851 8.00151 23.0026 7.72278 22.3222C7.44405 21.6417 7.37335 20.8938 7.51961 20.1732C7.66587 19.4525 8.02252 18.7914 8.54447 18.2735C9.06641 17.7556 9.73019 17.4042 10.4519 17.2636C11.1735 17.1231 11.9207 17.1997 12.5988 17.4839C13.2769 17.7681 13.8555 18.247 14.2614 18.8601C14.6674 19.4732 14.8824 20.193 14.8793 20.9283C14.8801 21.4172 14.7839 21.9014 14.5963 22.3528C14.4087 22.8042 14.1335 23.214 13.7865 23.5583C13.4395 23.9026 13.0276 24.1747 12.5748 24.3587C12.122 24.5427 11.6371 24.6351 11.1484 24.6304Z" fill="#46B972"/>
<path d="M16.6986 12.2733C17.3611 12.2733 17.9203 12.2692 18.4788 12.2733C19.2635 12.2815 19.7998 12.7957 19.8006 13.5289C19.8014 14.2621 19.2651 14.7845 18.4804 14.787C16.8814 14.7927 15.2824 14.787 13.6834 14.787C13.1201 14.787 12.6995 14.5475 12.4748 14.0349C12.2419 13.5051 12.3567 13.0122 12.7601 12.603C13.5465 11.8042 14.3427 11.016 15.1316 10.2197C15.2234 10.1278 15.3538 10.0605 15.3882 9.86536C14.8208 9.86536 14.2656 9.86946 13.7105 9.86536C12.8995 9.8588 12.36 9.34211 12.3682 8.58841C12.3756 7.85848 12.9143 7.35328 13.708 7.35082C15.2939 7.3459 16.879 7.35082 18.464 7.35082C19.0446 7.35082 19.4767 7.58948 19.7014 8.12257C19.926 8.65566 19.7981 9.14364 19.3947 9.55207C18.6157 10.3386 17.831 11.1193 17.0495 11.9034C16.9511 11.9994 16.8626 12.0994 16.6986 12.2733Z" fill="#46B972"/>
</g>
<defs>
<clipPath id="clip0_41_1545">
<rect width="42" height="42" fill="white"/>
</clipPath>
</defs>
</svg>
