<svg width="64" height="64" viewBox="0 0 64 64" fill="none" xmlns="http://www.w3.org/2000/svg">
<g clip-path="url(#clip0_41_1466)">
<path d="M42.5017 34.9936C41.0216 34.9409 39.8052 36.1252 39.8052 37.5934V34.9241C39.8052 33.5134 38.7082 32.3119 37.2984 32.2618C35.8183 32.2092 34.6019 33.3934 34.6019 34.8617V32.3224C34.6019 30.9117 33.5049 29.7103 32.0952 29.6602C30.6151 29.6076 29.3987 30.7918 29.3987 32.2601V23.4769C29.3987 22.0662 28.3017 20.8648 26.8919 20.8147C25.4118 20.7621 24.1954 21.9463 24.1954 23.4146V39.0243C24.1954 37.5874 23.0307 36.4227 21.5938 36.4227C20.1569 36.4227 18.9922 37.5874 18.9922 39.0243V52.0326C18.9922 52.8769 19.2661 53.6986 19.7727 54.3741L22.1142 57.4961C22.6208 58.1716 22.8947 58.9932 22.8947 59.8376V62.7124C22.8947 63.4237 23.4712 64.0002 24.1824 64.0002H42.4199C43.1312 64.0002 43.7077 63.4237 43.7077 62.7124V59.8178C43.7077 58.9669 43.8121 58.1193 44.0184 57.2939L44.6978 54.5763C44.9042 53.7508 45.0086 52.9032 45.0086 52.0524V37.6559C45.0084 36.2452 43.9114 35.0438 42.5017 34.9936Z" fill="#FED2A4"/>
<path d="M22.8809 59.5101C22.89 59.6186 22.8951 59.7277 22.8951 59.8373V62.7122C22.8951 63.4234 23.4716 63.9999 24.1829 63.9999H42.4204C43.1316 63.9999 43.7081 63.4234 43.7081 62.7122V59.8176C43.7081 58.9667 43.8125 58.1191 44.0189 57.2937L44.6982 54.5761C44.9046 53.7506 45.009 52.9029 45.009 52.0521V40.0649C45.0089 40.0649 40.7419 57.4678 22.8809 59.5101Z" fill="#FFBD86"/>
<path d="M15.5473 16.6504H6.8257C4.6362 16.6504 2.86133 14.8755 2.86133 12.686V3.96438C2.86133 1.77487 4.63633 0 6.8257 0H15.5473C17.7368 0 19.5117 1.77487 19.5117 3.96438V12.686C19.5118 14.8755 17.7368 16.6504 15.5473 16.6504Z" fill="#A2F5C3"/>
<path d="M15.548 0H12.166C14.3555 0 16.1304 1.77487 16.1304 3.96438V12.686C16.1304 14.8755 14.3555 16.6504 12.166 16.6504H15.5481C17.7376 16.6504 19.5125 14.8755 19.5125 12.686V3.96438C19.5125 1.77487 17.7375 0 15.548 0V0Z" fill="#88F2A9"/>
<path d="M36.3598 16.6504H27.6382C25.4487 16.6504 23.6738 14.8755 23.6738 12.686V3.96438C23.6737 1.77487 25.4487 0 27.6381 0H36.3597C38.5492 0 40.3241 1.77487 40.3241 3.96438V12.686C40.3242 14.8755 38.5492 16.6504 36.3598 16.6504Z" fill="#4172CA"/>
<path d="M36.3606 0H32.9785C35.168 0 36.9429 1.77487 36.9429 3.96438V12.686C36.9429 14.8755 35.168 16.6504 32.9785 16.6504H36.3606C38.5501 16.6504 40.325 14.8755 40.325 12.686V3.96438C40.325 1.77487 38.55 0 36.3606 0V0Z" fill="#3A67C1"/>
<path d="M57.1743 16.6504H48.4527C46.2632 16.6504 44.4883 14.8755 44.4883 12.686V3.96438C44.4882 1.77487 46.2632 0 48.4525 0H57.1742C59.3637 0 61.1385 1.77487 61.1385 3.96438V12.686C61.1387 14.8755 59.3637 16.6504 57.1743 16.6504Z" fill="#4172CA"/>
<path d="M57.1751 0H53.793C55.9825 0 57.7573 1.77487 57.7573 3.96438V12.686C57.7573 14.8755 55.9825 16.6504 53.793 16.6504H57.1751C59.3646 16.6504 61.1395 14.8755 61.1395 12.686V3.96438C61.1395 1.77487 59.3645 0 57.1751 0V0Z" fill="#3A67C1"/>
<path d="M23.1957 47.0571L23.9111 46.3417C24.0922 46.1604 24.1939 45.9149 24.1939 45.6587V39.0242C24.1938 37.8196 23.3738 36.8092 22.2623 36.5132V45.2587L21.8298 45.6912C21.4526 46.0684 21.4526 46.6798 21.8298 47.0572C22.2071 47.4341 22.8186 47.4341 23.1957 47.0571Z" fill="#EA9B58"/>
<path d="M38.837 43.8926C39.3705 43.8926 39.8027 43.4602 39.8027 42.9268V34.9232C39.8023 33.7121 38.9923 32.6576 37.8711 32.3516V42.9268C37.8712 43.4602 38.3036 43.8926 38.837 43.8926Z" fill="#EA9B58"/>
<path d="M28.4307 43.8927C28.9641 43.8927 29.3965 43.4603 29.3965 42.9269V32.2599V32.2603V23.4772C29.3965 22.2657 28.5863 21.2107 27.4648 20.9045V42.9269C27.4648 43.4603 27.8973 43.8927 28.4307 43.8927Z" fill="#EA9B58"/>
<path d="M33.6338 43.8926C34.1673 43.8926 34.5996 43.4603 34.5996 42.9269V32.3223C34.5995 31.1109 33.7895 30.056 32.668 29.75V42.9269C32.668 43.4603 33.1003 43.8926 33.6338 43.8926Z" fill="#EA9B58"/>
<path d="M10.2322 11.1706C9.99231 11.1706 9.75231 11.0791 9.56931 10.8961L7.66131 8.98823C7.29519 8.62198 7.29519 8.02848 7.66131 7.66248C8.02744 7.29623 8.62106 7.29636 8.98706 7.66236L10.2321 8.90736L13.3848 5.75448C13.7509 5.38848 14.3446 5.38848 14.7106 5.75448C15.0767 6.12073 15.0767 6.71423 14.7106 7.08036L10.8951 10.8961C10.7121 11.0791 10.4721 11.1706 10.2322 11.1706Z" fill="#4172CA"/>
</g>
<defs>
<clipPath id="clip0_41_1466">
<rect width="64" height="64" fill="white"/>
</clipPath>
</defs>
</svg>
