<svg width="64" height="64" viewBox="0 0 64 64" fill="none" xmlns="http://www.w3.org/2000/svg">
<path d="M61 0H17C16.448 0 16 0.448 16 1V63C16 63.552 16.448 64 17 64H61C61.552 64 62 63.552 62 63V1C62 0.448 61.552 0 61 0Z" fill="#FF7B66"/>
<path d="M21 59H46L57 49V7H21V59Z" fill="#FFFEFE"/>
<path d="M27 0V10C27 10.552 27.448 11 28 11H50C50.552 11 51 10.552 51 10V0H27Z" fill="#FFE585"/>
<path d="M30 5H32V7H30V5Z" fill="#FFFEFA"/>
<path d="M46 5H48V7H46V5Z" fill="#FFFEFA"/>
<path d="M47 49H57L46 59V50C46 49.448 46.448 49 47 49Z" fill="#EBEBEB"/>
<path d="M28 17H51V33H28V17Z" fill="#EBEBEB"/>
<path d="M34 38H45V40H34V38Z" fill="#EBEBEB"/>
<path d="M47 38H53V40H47V38Z" fill="#EBEBEB"/>
<path d="M31 44H42V46H31V44Z" fill="#EBEBEB"/>
<path d="M44 44H53V46H44V44Z" fill="#EBEBEB"/>
<path d="M26 50H43V52H26V50Z" fill="#EBEBEB"/>
<path d="M34 5H44V7H34V5Z" fill="#FFFEFA"/>
<path d="M32 27L30.648 34.661C29.589 40.661 26.288 46.034 21.413 49.69L17 53L12.457 49.548C7.646 45.893 4.391 40.557 3.341 34.606L2 27L17 19L32 27Z" fill="#BDE660"/>
<path d="M14.8764 46.363C10.8554 43.307 8.15736 38.885 7.28036 33.912L6.44336 29.163L16.9994 23.533L27.5554 29.163L26.7084 33.965C25.8224 38.984 23.0894 43.431 19.0124 46.489L17.0144 47.988L14.8764 46.363Z" fill="#FDFEFC"/>
<path d="M16.9983 49.3719C16.7853 49.3719 16.5723 49.3039 16.3933 49.1679L13.0613 46.6369C9.32127 43.7949 6.81227 39.6829 5.99627 35.0569L5.01327 29.4789C4.93827 29.0529 5.14527 28.6259 5.52727 28.4229L10.5283 25.7559L11.4693 27.5209L7.10927 29.8459L7.96627 34.7089C8.69427 38.8369 10.9333 42.5069 14.2713 45.0429L17.0013 47.1179L19.6333 45.1439C23.0173 42.6059 25.2853 38.9139 26.0203 34.7479L26.8863 29.8449L22.5243 27.5179L23.4653 25.7529L28.4673 28.4209C28.8493 28.6249 29.0563 29.0509 28.9813 29.4769L27.9893 35.0949C27.1653 39.7619 24.6243 43.8989 20.8323 46.7419L17.5963 49.1689C17.4203 49.3049 17.2093 49.3719 16.9983 49.3719Z" fill="#D7F0A0"/>
<path d="M20.5293 26.455L16.9983 24.572L13.4703 26.454L12.5293 24.689L16.5283 22.556C16.8223 22.399 17.1753 22.399 17.4693 22.556L21.4713 24.69L20.5293 26.455Z" fill="#D7F0A0"/>
<path d="M15.9992 40C15.9862 40 15.9742 40 15.9612 40C15.6602 39.988 15.3792 39.842 15.1992 39.601L12.1992 35.601L13.7992 34.401L16.0592 37.414L22.2472 30.342L23.7522 31.659L16.7522 39.659C16.5612 39.876 16.2872 40 15.9992 40Z" fill="#BDE660"/>
<path d="M16 28H18V30H16V28Z" fill="#BDE660"/>
<path d="M16 42H18V44H16V42Z" fill="#BDE660"/>
</svg>
