<svg width="64" height="64" viewBox="0 0 64 64" fill="none" xmlns="http://www.w3.org/2000/svg">
<g clip-path="url(#clip0_41_1965)">
<path d="M32.4369 42.4417L44.2321 34.0449C47.1831 31.9567 48.9404 28.5688 48.9478 24.9537V7.68006C48.9481 7.46771 48.8224 7.2754 48.6278 7.19046L32.0945 0.0437928C31.9584 -0.0155742 31.8038 -0.0155742 31.6678 0.0437928L15.1345 7.19046C14.9398 7.2754 14.8141 7.46771 14.8145 7.68006V24.9601C14.8217 28.5755 16.5795 31.9635 19.5313 34.0513L31.3265 42.4481C31.6604 42.6819 32.1056 42.6794 32.4369 42.4417Z" fill="#894B9D"/>
<path d="M22.0038 30.5687C20.18 29.2788 19.0912 27.1877 19.0801 24.9538V10.1335L31.8801 4.60498L44.6801 10.1335V24.9602C44.6692 27.1941 43.5803 29.2853 41.7563 30.5751L31.8801 37.6055L22.0038 30.5687Z" fill="#B49ACA"/>
<path d="M29.4385 27.84C29.2077 27.84 28.9831 27.7652 28.7985 27.6267L23.9228 23.9691C23.6179 23.7405 23.4582 23.3665 23.5038 22.9882C23.5494 22.6098 23.7933 22.2845 24.1438 22.1348C24.4942 21.9852 24.8979 22.0338 25.2028 22.2624L29.2561 25.3003L38.3622 13.9168C38.7301 13.4565 39.4016 13.3815 39.862 13.7494C40.3224 14.1173 40.3973 14.7887 40.0294 15.2491L30.2758 27.4368C30.073 27.6922 29.7646 27.8407 29.4385 27.84Z" fill="#3D324C"/>
<path d="M15.2696 45.5872L10.3971 40.7136C9.35194 39.6685 8.51568 38.4336 7.93308 37.0752L5.54588 31.5083C5.17802 30.6508 4.33496 30.0946 3.40188 30.0939C2.60877 30.095 1.87048 30.4987 1.44144 31.1657C1.01241 31.8328 0.951317 32.672 1.27921 33.3941L5.45948 42.5909C5.97214 43.7183 6.68317 44.7444 7.55868 45.6203L15.2696 53.3333H25.5992V50.2816C25.634 47.9975 24.8924 45.7693 23.4957 43.9616C22.7152 42.9316 21.6519 42.1507 20.4355 41.7141C18.0675 40.7147 15.8848 39.3235 13.9789 37.5989C12.457 36.3284 10.2164 36.4322 8.81841 37.8379" fill="#FDD7AD"/>
<path d="M48.7271 45.5873L53.6007 40.7137C54.6458 39.6686 55.4821 38.4337 56.0647 37.0753L58.4529 31.5084C58.8211 30.6502 59.6652 30.0939 60.5991 30.094C61.3918 30.0959 62.1294 30.4998 62.5579 31.1667C62.9865 31.8337 63.0473 32.6725 62.7196 33.3943L58.5393 42.5911C58.0267 43.7184 57.3156 44.7445 56.4401 45.6204L48.7271 53.3335H38.3996V50.2817C38.3651 47.9975 39.1071 45.7692 40.5041 43.9617C41.2847 42.9317 42.348 42.1508 43.5644 41.7143C45.932 40.7148 48.1144 39.3236 50.0199 37.5991C51.5423 36.3289 53.7829 36.4327 55.1815 37.838" fill="#FDD7AD"/>
<path d="M37.3328 64H49.0661C49.6552 64 50.1328 63.5224 50.1328 62.9333V54.4C50.1328 53.8109 49.6552 53.3333 49.0661 53.3333H37.3328C36.7437 53.3333 36.2661 53.8109 36.2661 54.4V62.9333C36.2661 63.5224 36.7437 64 37.3328 64Z" fill="#41767F"/>
<path d="M41.6001 59.7334H40.5335C39.9444 59.7334 39.4668 59.2559 39.4668 58.6668C39.4668 58.0777 39.9444 57.6001 40.5335 57.6001H41.6001C42.1892 57.6001 42.6668 58.0777 42.6668 58.6668C42.6668 59.2559 42.1892 59.7334 41.6001 59.7334Z" fill="#2C3E50"/>
<path d="M26.6652 53.3335H14.9319C14.3428 53.3335 13.8652 53.8111 13.8652 54.4002V62.9335C13.8652 63.5226 14.3428 64.0002 14.9319 64.0002H26.6652C27.2543 64.0002 27.7319 63.5226 27.7319 62.9335V54.4002C27.7319 53.8111 27.2543 53.3335 26.6652 53.3335Z" fill="#41767F"/>
<path d="M23.4654 59.7334H22.3987C21.8096 59.7334 21.332 59.2559 21.332 58.6668C21.332 58.0777 21.8096 57.6001 22.3987 57.6001H23.4654C24.0545 57.6001 24.532 58.0777 24.532 58.6668C24.532 59.2559 24.0545 59.7334 23.4654 59.7334Z" fill="#2C3E50"/>
<path d="M16.9808 45.856C16.5601 46.2686 15.8867 46.2686 15.4661 45.856L10.5914 40.9814C9.88195 40.2715 9.25895 39.4802 8.73542 38.624C8.63942 38.464 8.55408 38.3147 8.46875 38.1547L8.87408 37.7814C9.25631 37.3969 9.71894 37.1018 10.2288 36.9174C10.721 37.861 11.354 38.7243 12.1061 39.4774L16.9808 44.3414C17.3967 44.7606 17.3967 45.4368 16.9808 45.856Z" fill="#F09372"/>
<path d="M47.101 45.856C47.5217 46.2686 48.1951 46.2686 48.6157 45.856L53.4904 40.9814C54.1998 40.2715 54.8228 39.4802 55.3464 38.624C55.4424 38.464 55.5277 38.3147 55.613 38.1547L55.2077 37.7814C54.8255 37.3969 54.3629 37.1018 53.853 36.9174C53.3608 37.861 52.7278 38.7243 51.9757 39.4774L47.101 44.3414C46.6851 44.7606 46.6851 45.4368 47.101 45.856Z" fill="#F09372"/>
</g>
<defs>
<clipPath id="clip0_41_1965">
<rect width="64" height="64" fill="white"/>
</clipPath>
</defs>
</svg>
